<?xml version="1.0" encoding="UTF-8"?>
<!DOCTYPE svg PUBLIC "-//W3C//DTD SVG 1.1//EN" "http://www.w3.org/Graphics/SVG/1.1/DTD/svg11.dtd">
<svg version="1.1" xmlns="http://www.w3.org/2000/svg" xmlns:xlink="http://www.w3.org/1999/xlink" x="0px" y="0px" width="100" height="100" viewBox="0, 0, 100, 100">
  <g id="Help">
    <path d="M97,49.998 C97,75.955 75.957,96.998 50,96.998 C24.043,96.998 3,75.955 3,49.998 C3,24.041 24.043,2.998 50,2.998 C75.957,2.998 97,24.041 97,49.998 z" fill-opacity="0" stroke="#FFFFFF" stroke-width="6" stroke-miterlimit="10"/>
    <path d="M37.21,27.201 C40.467,23.734 44.938,22 50.623,22 C55.882,22 60.093,23.483 63.255,26.449 C66.418,29.416 68,33.206 68,37.82 C68,40.615 67.427,42.882 66.279,44.623 C65.133,46.363 62.782,48.921 59.228,52.296 C56.643,54.748 54.96,56.824 54.18,58.525 C53.4,60.225 53.01,62.737 53.01,66.059 L45.97,66.059 C45.97,62.288 46.418,59.25 47.316,56.943 C48.212,54.635 50.207,51.993 53.299,49.013 L56.527,45.888 C57.495,44.992 58.28,44.056 58.882,43.079 C59.978,41.366 60.525,39.586 60.525,37.74 C60.525,35.156 59.738,32.915 58.163,31.016 C56.589,29.118 53.984,28.168 50.35,28.168 C45.854,28.168 42.746,29.803 41.022,33.072 C40.053,34.891 39.501,37.515 39.367,40.943 L32.327,40.943 C32.325,35.25 33.953,30.668 37.21,27.201 z M45.812,72.625 L53.683,72.625 L53.683,80.852 L45.812,80.852 L45.812,72.625 z" fill="#FFFFFF"/>
  </g>
  <defs/>
</svg>
